<?xml version="1.0"?>
<svg width="4.2333331" height="4.2333331" xmlns="http://www.w3.org/2000/svg" xmlns:svg="http://www.w3.org/2000/svg" version="1.1">

 <g class="layer">
  <title>Layer 1</title>
  <rect fill="#000000" height="4.27" id="rect2127" stroke-width="0.2" width="4.31" x="-0.06" y="-0.01"/>
  <g fill="#ff0000" font-family="sans-serif" font-size="3.05px" id="text358" stroke-width="0.25">
   <path d="m0.65,1.02l0,0.77q0,0.34 -0.24,0.37q0.24,0.03 0.24,0.36l0,0.77q0,0.06 0.02,0.08q0.02,0.02 0.07,0.02l0.14,0l0,0.21l-0.25,0q-0.14,0 -0.2,-0.07q-0.06,-0.07 -0.06,-0.2l0,-0.74q0,-0.17 -0.06,-0.25q-0.06,-0.07 -0.19,-0.07l-0.06,0l0,-0.22l0.06,0q0.13,0 0.19,-0.08q0.06,-0.08 0.06,-0.25l0,-0.73q0,-0.27 0.26,-0.27l0.25,0l0,0.21l-0.14,0q-0.05,0 -0.07,0.02q-0.02,0.02 -0.02,0.07z" fill="#24a4d2" id="path5182" transform="matrix(1 0 0 1 0 0)"/>
   <path d="m3.61,1.79l0,-0.77q0,-0.05 -0.02,-0.07q-0.03,-0.02 -0.08,-0.02l-0.14,0l0,-0.21l0.25,0q0.15,0 0.2,0.07q0.06,0.07 0.06,0.2l0,0.73q0,0.17 0.06,0.25q0.06,0.08 0.2,0.08l0.05,0l0,0.22l-0.05,0q-0.14,0 -0.2,0.07q-0.06,0.08 -0.06,0.25l0,0.74q0,0.13 -0.06,0.2q-0.05,0.07 -0.2,0.07l-0.25,0l0,-0.21l0.14,0q0.05,0 0.08,-0.02q0.02,-0.02 0.02,-0.08l0,-0.77q0,-0.33 0.23,-0.36q-0.23,-0.03 -0.23,-0.37z" fill="#24a4d2" id="path5188"/>
  </g>
  <text fill="#ffffff" font-family="Sans-serif" font-size="24" id="svg_1" stroke="#000000" stroke-width="0" text-anchor="middle" transform="matrix(0.090529 0 0 0.110308 -11.8389 -1.19898)" x="153.95" xml:space="preserve" y="39.12">FL</text>
 </g>
</svg>